<!-- Title: dbml Pages: 1 -->
<svg width="521pt" height="608pt"
  viewBox="0.00 0.00 521.36 607.63" xmlns="http://www.w3.org/2000/svg"
  xmlns:xlink="http://www.w3.org/1999/xlink">
  <g id="graph0" class="graph" transform="scale(1 1) rotate(0) translate(4 603.63)">
    <title>dbml</title>
    <!-- Incorrect.Apply -->
    <g id="Incorrect.Apply" class="node">
      <title>Incorrect.Apply</title>
      <ellipse fill="none" stroke="black" stroke-width="0" cx="256.68" cy="-299.81" rx="256.86"
        ry="299.63" />
      <polygon fill="#1d71b8" stroke="transparent"
        points="77.68,-449.81 77.68,-509.81 436.68,-509.81 436.68,-449.81 77.68,-449.81" />
      <polygon fill="none" stroke="#29235c"
        points="77.68,-449.81 77.68,-509.81 436.68,-509.81 436.68,-449.81 77.68,-449.81" />
      <text text-anchor="start" x="88.25" y="-471.01" font-family="Helvetica,sans-Serif"
        font-weight="bold" font-size="32.00" fill="#ffffff">
        &#160;&#160;&#160;&#160;&#160;&#160;Incorrect.Apply &#160;&#160;&#160;&#160;&#160;&#160;</text>
      <polygon fill="#e7e2dd" stroke="transparent"
        points="77.68,-389.81 77.68,-449.81 436.68,-449.81 436.68,-389.81 77.68,-389.81" />
      <polygon fill="none" stroke="#29235c"
        points="77.68,-389.81 77.68,-449.81 436.68,-449.81 436.68,-389.81 77.68,-389.81" />
      <text text-anchor="start" x="88.68" y="-411.01" font-family="Helvetica,sans-Serif"
        font-weight="bold" font-size="32.00" fill="#29235c">SSN</text>
      <text text-anchor="start" x="154.46" y="-411.01" font-family="Helvetica,sans-Serif"
        font-size="32.00" fill="#29235c"> &#160;&#160;&#160;</text>
      <text text-anchor="start" x="391.9" y="-411.01" font-family="Helvetica,sans-Serif"
        font-style="italic" font-size="32.00" fill="#29235c">int</text>
      <polygon fill="#e7e2dd" stroke="transparent"
        points="77.68,-329.81 77.68,-389.81 436.68,-389.81 436.68,-329.81 77.68,-329.81" />
      <polygon fill="none" stroke="#29235c"
        points="77.68,-329.81 77.68,-389.81 436.68,-389.81 436.68,-329.81 77.68,-329.81" />
      <text text-anchor="start" x="88.68" y="-350.01" font-family="Helvetica,sans-Serif"
        font-size="32.00" fill="#29235c">sName &#160;&#160;&#160;</text>
      <text text-anchor="start" x="319.01" y="-351.01" font-family="Helvetica,sans-Serif"
        font-style="italic" font-size="32.00" fill="#29235c">varchar</text>
      <polygon fill="#e7e2dd" stroke="transparent"
        points="77.68,-269.81 77.68,-329.81 436.68,-329.81 436.68,-269.81 77.68,-269.81" />
      <polygon fill="none" stroke="#29235c"
        points="77.68,-269.81 77.68,-329.81 436.68,-329.81 436.68,-269.81 77.68,-269.81" />
      <text text-anchor="start" x="88.68" y="-290.01" font-family="Helvetica,sans-Serif"
        font-size="32.00" fill="#29235c">cName &#160;&#160;&#160;</text>
      <text text-anchor="start" x="319.01" y="-291.01" font-family="Helvetica,sans-Serif"
        font-style="italic" font-size="32.00" fill="#29235c">varchar</text>
      <polygon fill="#e7e2dd" stroke="transparent"
        points="77.68,-209.81 77.68,-269.81 436.68,-269.81 436.68,-209.81 77.68,-209.81" />
      <polygon fill="none" stroke="#29235c"
        points="77.68,-209.81 77.68,-269.81 436.68,-269.81 436.68,-209.81 77.68,-209.81" />
      <text text-anchor="start" x="88.68" y="-230.01" font-family="Helvetica,sans-Serif"
        font-size="32.00" fill="#29235c">HS &#160;&#160;&#160;</text>
      <text text-anchor="start" x="319.01" y="-231.01" font-family="Helvetica,sans-Serif"
        font-style="italic" font-size="32.00" fill="#29235c">varchar</text>
      <polygon fill="#e7e2dd" stroke="transparent"
        points="77.68,-149.81 77.68,-209.81 436.68,-209.81 436.68,-149.81 77.68,-149.81" />
      <polygon fill="none" stroke="#29235c"
        points="77.68,-149.81 77.68,-209.81 436.68,-209.81 436.68,-149.81 77.68,-149.81" />
      <text text-anchor="start" x="88.68" y="-170.01" font-family="Helvetica,sans-Serif"
        font-size="32.00" fill="#29235c">HScity &#160;&#160;&#160;</text>
      <text text-anchor="start" x="319.01" y="-171.01" font-family="Helvetica,sans-Serif"
        font-style="italic" font-size="32.00" fill="#29235c">varchar</text>
      <polygon fill="#e7e2dd" stroke="transparent"
        points="77.68,-89.81 77.68,-149.81 436.68,-149.81 436.68,-89.81 77.68,-89.81" />
      <polygon fill="none" stroke="#29235c"
        points="77.68,-89.81 77.68,-149.81 436.68,-149.81 436.68,-89.81 77.68,-89.81" />
      <text text-anchor="start" x="88.68" y="-110.01" font-family="Helvetica,sans-Serif"
        font-size="32.00" fill="#29235c">hobby &#160;&#160;&#160;</text>
      <text text-anchor="start" x="319.01" y="-111.01" font-family="Helvetica,sans-Serif"
        font-style="italic" font-size="32.00" fill="#29235c">varchar</text>
      <polygon fill="none" stroke="#29235c" stroke-width="2"
        points="76.18,-88.81 76.18,-510.81 437.18,-510.81 437.18,-88.81 76.18,-88.81" />
    </g>
  </g>
</svg>