<?xml version="1.0" encoding="UTF-8" standalone="no"?>
<!DOCTYPE svg PUBLIC "-//W3C//DTD SVG 1.1//EN"
 "http://www.w3.org/Graphics/SVG/1.1/DTD/svg11.dtd">
<!-- Generated by graphviz version 2.47.0 (20210316.0004)
 -->
<!-- Title: dbml Pages: 1 -->
<svg width="1177pt" height="1333pt"
 viewBox="0.00 0.00 1176.79 1333.35" xmlns="http://www.w3.org/2000/svg" xmlns:xlink="http://www.w3.org/1999/xlink">
<g id="graph0" class="graph" transform="scale(1 1) rotate(0) translate(4 1329.35)">
<title>dbml</title>
<!-- Incorrect.Apply -->
<g id="Incorrect.Apply" class="node">
<title>Incorrect.Apply</title>
<ellipse fill="none" stroke="black" stroke-width="0" cx="301.93" cy="-299.81" rx="256.86" ry="299.63"/>
<polygon fill="#1d71b8" stroke="transparent" points="122.93,-449.81 122.93,-509.81 481.93,-509.81 481.93,-449.81 122.93,-449.81"/>
<polygon fill="none" stroke="#29235c" points="122.93,-449.81 122.93,-509.81 481.93,-509.81 481.93,-449.81 122.93,-449.81"/>
<text text-anchor="start" x="133.5" y="-471.01" font-family="Helvetica,sans-Serif" font-weight="bold" font-size="32.00" fill="#ffffff"> &#160;&#160;&#160;&#160;&#160;&#160;Incorrect.Apply &#160;&#160;&#160;&#160;&#160;&#160;</text>
<polygon fill="#e7e2dd" stroke="transparent" points="122.93,-389.81 122.93,-449.81 481.93,-449.81 481.93,-389.81 122.93,-389.81"/>
<polygon fill="none" stroke="#29235c" points="122.93,-389.81 122.93,-449.81 481.93,-449.81 481.93,-389.81 122.93,-389.81"/>
<text text-anchor="start" x="133.93" y="-411.01" font-family="Helvetica,sans-Serif" font-weight="bold" font-size="32.00" fill="#29235c">SSN</text>
<text text-anchor="start" x="199.72" y="-411.01" font-family="Helvetica,sans-Serif" font-size="32.00" fill="#29235c"> &#160;&#160;&#160;</text>
<text text-anchor="start" x="437.15" y="-411.01" font-family="Helvetica,sans-Serif" font-style="italic" font-size="32.00" fill="#29235c">int</text>
<polygon fill="#e7e2dd" stroke="transparent" points="122.93,-329.81 122.93,-389.81 481.93,-389.81 481.93,-329.81 122.93,-329.81"/>
<polygon fill="none" stroke="#29235c" points="122.93,-329.81 122.93,-389.81 481.93,-389.81 481.93,-329.81 122.93,-329.81"/>
<text text-anchor="start" x="133.93" y="-350.01" font-family="Helvetica,sans-Serif" font-size="32.00" fill="#29235c">sName &#160;&#160;&#160;</text>
<text text-anchor="start" x="364.26" y="-351.01" font-family="Helvetica,sans-Serif" font-style="italic" font-size="32.00" fill="#29235c">varchar</text>
<polygon fill="#e7e2dd" stroke="transparent" points="122.93,-269.81 122.93,-329.81 481.93,-329.81 481.93,-269.81 122.93,-269.81"/>
<polygon fill="none" stroke="#29235c" points="122.93,-269.81 122.93,-329.81 481.93,-329.81 481.93,-269.81 122.93,-269.81"/>
<text text-anchor="start" x="133.93" y="-290.01" font-family="Helvetica,sans-Serif" font-size="32.00" fill="#29235c">cName &#160;&#160;&#160;</text>
<text text-anchor="start" x="364.26" y="-291.01" font-family="Helvetica,sans-Serif" font-style="italic" font-size="32.00" fill="#29235c">varchar</text>
<polygon fill="#e7e2dd" stroke="transparent" points="122.93,-209.81 122.93,-269.81 481.93,-269.81 481.93,-209.81 122.93,-209.81"/>
<polygon fill="none" stroke="#29235c" points="122.93,-209.81 122.93,-269.81 481.93,-269.81 481.93,-209.81 122.93,-209.81"/>
<text text-anchor="start" x="133.93" y="-230.01" font-family="Helvetica,sans-Serif" font-size="32.00" fill="#29235c">HS &#160;&#160;&#160;</text>
<text text-anchor="start" x="364.26" y="-231.01" font-family="Helvetica,sans-Serif" font-style="italic" font-size="32.00" fill="#29235c">varchar</text>
<polygon fill="#e7e2dd" stroke="transparent" points="122.93,-149.81 122.93,-209.81 481.93,-209.81 481.93,-149.81 122.93,-149.81"/>
<polygon fill="none" stroke="#29235c" points="122.93,-149.81 122.93,-209.81 481.93,-209.81 481.93,-149.81 122.93,-149.81"/>
<text text-anchor="start" x="133.93" y="-170.01" font-family="Helvetica,sans-Serif" font-size="32.00" fill="#29235c">HScity &#160;&#160;&#160;</text>
<text text-anchor="start" x="364.26" y="-171.01" font-family="Helvetica,sans-Serif" font-style="italic" font-size="32.00" fill="#29235c">varchar</text>
<polygon fill="#e7e2dd" stroke="transparent" points="122.93,-89.81 122.93,-149.81 481.93,-149.81 481.93,-89.81 122.93,-89.81"/>
<polygon fill="none" stroke="#29235c" points="122.93,-89.81 122.93,-149.81 481.93,-149.81 481.93,-89.81 122.93,-89.81"/>
<text text-anchor="start" x="133.93" y="-110.01" font-family="Helvetica,sans-Serif" font-size="32.00" fill="#29235c">hobby &#160;&#160;&#160;</text>
<text text-anchor="start" x="364.26" y="-111.01" font-family="Helvetica,sans-Serif" font-style="italic" font-size="32.00" fill="#29235c">varchar</text>
<polygon fill="none" stroke="#29235c" stroke-width="2" points="121.43,-88.81 121.43,-510.81 482.43,-510.81 482.43,-88.81 121.43,-88.81"/>
</g>
<!-- Correct.Student -->
<g id="Correct.Student" class="node">
<title>Correct.Student</title>
<ellipse fill="none" stroke="black" stroke-width="0" cx="904.33" cy="-1000.81" rx="264.42" ry="130.22"/>
<polygon fill="#1d71b8" stroke="transparent" points="719.33,-1030.81 719.33,-1090.81 1089.33,-1090.81 1089.33,-1030.81 719.33,-1030.81"/>
<polygon fill="none" stroke="#29235c" points="719.33,-1030.81 719.33,-1090.81 1089.33,-1090.81 1089.33,-1030.81 719.33,-1030.81"/>
<text text-anchor="start" x="730.05" y="-1052.01" font-family="Helvetica,sans-Serif" font-weight="bold" font-size="32.00" fill="#ffffff"> &#160;&#160;&#160;&#160;&#160;&#160;Correct.Student &#160;&#160;&#160;&#160;&#160;&#160;</text>
<polygon fill="#e7e2dd" stroke="transparent" points="719.33,-970.81 719.33,-1030.81 1089.33,-1030.81 1089.33,-970.81 719.33,-970.81"/>
<polygon fill="none" stroke="#29235c" points="719.33,-970.81 719.33,-1030.81 1089.33,-1030.81 1089.33,-970.81 719.33,-970.81"/>
<text text-anchor="start" x="730.33" y="-992.01" font-family="Helvetica,sans-Serif" font-weight="bold" font-size="32.00" fill="#29235c">SSN</text>
<text text-anchor="start" x="796.11" y="-992.01" font-family="Helvetica,sans-Serif" font-size="32.00" fill="#29235c"> &#160;&#160;&#160;</text>
<text text-anchor="start" x="1044.54" y="-992.01" font-family="Helvetica,sans-Serif" font-style="italic" font-size="32.00" fill="#29235c">int</text>
<polygon fill="#e7e2dd" stroke="transparent" points="719.33,-910.81 719.33,-970.81 1089.33,-970.81 1089.33,-910.81 719.33,-910.81"/>
<polygon fill="none" stroke="#29235c" points="719.33,-910.81 719.33,-970.81 1089.33,-970.81 1089.33,-910.81 719.33,-910.81"/>
<text text-anchor="start" x="730.33" y="-931.01" font-family="Helvetica,sans-Serif" font-size="32.00" fill="#29235c">sName &#160;&#160;&#160;</text>
<text text-anchor="start" x="971.66" y="-932.01" font-family="Helvetica,sans-Serif" font-style="italic" font-size="32.00" fill="#29235c">varchar</text>
<polygon fill="none" stroke="#29235c" stroke-width="2" points="718.33,-909.81 718.33,-1091.81 1090.33,-1091.81 1090.33,-909.81 718.33,-909.81"/>
</g>
<!-- Correct.Apply -->
<g id="Correct.Apply" class="node">
<title>Correct.Apply</title>
<ellipse fill="none" stroke="black" stroke-width="0" cx="301.93" cy="-1152.81" rx="243.49" ry="172.57"/>
<polygon fill="#1d71b8" stroke="transparent" points="131.93,-1212.81 131.93,-1272.81 471.93,-1272.81 471.93,-1212.81 131.93,-1212.81"/>
<polygon fill="none" stroke="#29235c" points="131.93,-1212.81 131.93,-1272.81 471.93,-1272.81 471.93,-1212.81 131.93,-1212.81"/>
<text text-anchor="start" x="142.79" y="-1234.01" font-family="Helvetica,sans-Serif" font-weight="bold" font-size="32.00" fill="#ffffff"> &#160;&#160;&#160;&#160;&#160;&#160;Correct.Apply &#160;&#160;&#160;&#160;&#160;&#160;</text>
<polygon fill="#e7e2dd" stroke="transparent" points="131.93,-1152.81 131.93,-1212.81 471.93,-1212.81 471.93,-1152.81 131.93,-1152.81"/>
<polygon fill="none" stroke="#29235c" points="131.93,-1152.81 131.93,-1212.81 471.93,-1212.81 471.93,-1152.81 131.93,-1152.81"/>
<text text-anchor="start" x="142.93" y="-1173.01" font-family="Helvetica,sans-Serif" font-size="32.00" fill="#29235c">SSN &#160;&#160;&#160;</text>
<text text-anchor="start" x="427.15" y="-1174.01" font-family="Helvetica,sans-Serif" font-style="italic" font-size="32.00" fill="#29235c">int</text>
<polygon fill="#e7e2dd" stroke="transparent" points="131.93,-1092.81 131.93,-1152.81 471.93,-1152.81 471.93,-1092.81 131.93,-1092.81"/>
<polygon fill="none" stroke="#29235c" points="131.93,-1092.81 131.93,-1152.81 471.93,-1152.81 471.93,-1092.81 131.93,-1092.81"/>
<text text-anchor="start" x="142.93" y="-1113.01" font-family="Helvetica,sans-Serif" font-size="32.00" fill="#29235c">cName &#160;&#160;&#160;</text>
<text text-anchor="start" x="354.26" y="-1114.01" font-family="Helvetica,sans-Serif" font-style="italic" font-size="32.00" fill="#29235c">varchar</text>
<polygon fill="#e7e2dd" stroke="transparent" points="131.93,-1032.81 131.93,-1092.81 471.93,-1092.81 471.93,-1032.81 131.93,-1032.81"/>
<polygon fill="none" stroke="#29235c" points="131.93,-1032.81 131.93,-1092.81 471.93,-1092.81 471.93,-1032.81 131.93,-1032.81"/>
<text text-anchor="start" x="142.93" y="-1053.01" font-family="Helvetica,sans-Serif" font-size="32.00" fill="#29235c">hobby &#160;&#160;&#160;</text>
<text text-anchor="start" x="354.26" y="-1054.01" font-family="Helvetica,sans-Serif" font-style="italic" font-size="32.00" fill="#29235c">varchar</text>
<polygon fill="none" stroke="#29235c" stroke-width="2" points="130.93,-1031.81 130.93,-1273.81 472.93,-1273.81 472.93,-1031.81 130.93,-1031.81"/>
</g>
<!-- Correct.Apply&#45;&gt;Correct.Student -->
<!-- Correct.Apply&#45;&gt;Correct.Student -->
<g id="edge2" class="edge">
<title>Correct.Apply:e&#45;&gt;Correct.Student:w</title>
<path fill="none" stroke="#29235c" stroke-width="3" d="M472.93,-1182.81C605.27,-1182.81 583.77,-1009.94 708.29,-1001.16"/>
<polygon fill="#29235c" stroke="#29235c" stroke-width="3" points="708.45,-1004.66 718.33,-1000.81 708.21,-997.66 708.45,-1004.66"/>
<text text-anchor="middle" x="709.43" y="-1010.41" font-family="Helvetica,sans-Serif" font-size="32.00" fill="#29235c">1</text>
<text text-anchor="middle" x="479.16" y="-1192.41" font-family="Helvetica,sans-Serif" font-size="32.00" fill="#29235c">*</text>
</g>
<!-- Correct.HighSchool -->
<g id="Correct.HighSchool" class="node">
<title>Correct.HighSchool</title>
<ellipse fill="none" stroke="black" stroke-width="0" cx="301.93" cy="-789.81" rx="301.87" ry="172.57"/>
<polygon fill="#1d71b8" stroke="transparent" points="90.93,-849.81 90.93,-909.81 513.93,-909.81 513.93,-849.81 90.93,-849.81"/>
<polygon fill="none" stroke="#29235c" points="90.93,-849.81 90.93,-909.81 513.93,-909.81 513.93,-849.81 90.93,-849.81"/>
<text text-anchor="start" x="101.51" y="-871.01" font-family="Helvetica,sans-Serif" font-weight="bold" font-size="32.00" fill="#ffffff"> &#160;&#160;&#160;&#160;&#160;&#160;Correct.HighSchool &#160;&#160;&#160;&#160;&#160;&#160;</text>
<polygon fill="#e7e2dd" stroke="transparent" points="90.93,-789.81 90.93,-849.81 513.93,-849.81 513.93,-789.81 90.93,-789.81"/>
<polygon fill="none" stroke="#29235c" points="90.93,-789.81 90.93,-849.81 513.93,-849.81 513.93,-789.81 90.93,-789.81"/>
<text text-anchor="start" x="101.93" y="-810.01" font-family="Helvetica,sans-Serif" font-size="32.00" fill="#29235c">SSN &#160;&#160;&#160;</text>
<text text-anchor="start" x="469.15" y="-811.01" font-family="Helvetica,sans-Serif" font-style="italic" font-size="32.00" fill="#29235c">int</text>
<polygon fill="#e7e2dd" stroke="transparent" points="90.93,-729.81 90.93,-789.81 513.93,-789.81 513.93,-729.81 90.93,-729.81"/>
<polygon fill="none" stroke="#29235c" points="90.93,-729.81 90.93,-789.81 513.93,-789.81 513.93,-729.81 90.93,-729.81"/>
<text text-anchor="start" x="101.93" y="-750.01" font-family="Helvetica,sans-Serif" font-size="32.00" fill="#29235c">HS &#160;&#160;&#160;</text>
<text text-anchor="start" x="396.26" y="-751.01" font-family="Helvetica,sans-Serif" font-style="italic" font-size="32.00" fill="#29235c">varchar</text>
<polygon fill="#e7e2dd" stroke="transparent" points="90.93,-669.81 90.93,-729.81 513.93,-729.81 513.93,-669.81 90.93,-669.81"/>
<polygon fill="none" stroke="#29235c" points="90.93,-669.81 90.93,-729.81 513.93,-729.81 513.93,-669.81 90.93,-669.81"/>
<text text-anchor="start" x="101.93" y="-690.01" font-family="Helvetica,sans-Serif" font-size="32.00" fill="#29235c">HScity &#160;&#160;&#160;</text>
<text text-anchor="start" x="396.26" y="-691.01" font-family="Helvetica,sans-Serif" font-style="italic" font-size="32.00" fill="#29235c">varchar</text>
<polygon fill="none" stroke="#29235c" stroke-width="2" points="89.43,-668.81 89.43,-910.81 514.43,-910.81 514.43,-668.81 89.43,-668.81"/>
</g>
<!-- Correct.HighSchool&#45;&gt;Correct.Student -->
<!-- Correct.HighSchool&#45;&gt;Correct.Student -->
<g id="edge4" class="edge">
<title>Correct.HighSchool:e&#45;&gt;Correct.Student:w</title>
<path fill="none" stroke="#29235c" stroke-width="3" d="M514.93,-819.81C632.4,-819.81 599.45,-990.36 708.09,-1000.36"/>
<polygon fill="#29235c" stroke="#29235c" stroke-width="3" points="708.18,-1003.86 718.33,-1000.81 708.49,-996.87 708.18,-1003.86"/>
<text text-anchor="middle" x="727.22" y="-1010.41" font-family="Helvetica,sans-Serif" font-size="32.00" fill="#29235c">1</text>
<text text-anchor="middle" x="521.16" y="-829.41" font-family="Helvetica,sans-Serif" font-size="32.00" fill="#29235c">*</text>
</g>
</g>
</svg>
